<?xml version="1.0" encoding="utf-8"?>
<!-- Generator: Adobe Illustrator 17.1.0, SVG Export Plug-In . SVG Version: 6.00 Build 0)  -->
<!DOCTYPE svg PUBLIC "-//W3C//DTD SVG 1.1//EN" "http://www.w3.org/Graphics/SVG/1.1/DTD/svg11.dtd">
<svg version="1.1" id="Capa_1" xmlns="http://www.w3.org/2000/svg" xmlns:xlink="http://www.w3.org/1999/xlink" x="0px" y="0px"
	 width="1000px" height="1000px" viewBox="0 0 1000 1000" enable-background="new 0 0 1000 1000" xml:space="preserve">
<path fill="#ffffff" d="M283.531,178.698c-20.379-20.625-53.62-20.824-74.245-0.445L77.806,308.165c-9.905,9.787-15.516,23.107-15.599,37.03
	c-0.083,13.924,5.367,27.31,15.154,37.215l131.682,133.271c10.27,10.395,23.804,15.6,37.347,15.6
	c13.329,0,26.667-5.046,36.898-15.155c20.625-20.379,20.825-53.62,0.446-74.245l-42.677-43.192h428.529
	c88.963,0,161.34,72.377,161.34,161.34v4.32c0,43.096-16.782,83.611-47.255,114.084c-20.502,20.502-20.502,53.744,0,74.246
	c10.252,10.252,23.686,15.377,37.123,15.377c13.434,0,26.873-5.127,37.123-15.377c50.305-50.305,78.009-117.188,78.009-188.331
	v-4.32c0-71.142-27.704-138.026-78.009-188.331c-50.305-50.305-117.189-78.009-188.331-78.009H241.847l41.238-40.747
	C303.711,232.563,303.91,199.323,283.531,178.698z"/>
</svg>
